<svg width="17" height="20" viewBox="0 0 17 20" fill="none" xmlns="http://www.w3.org/2000/svg">
<path d="M15.7781 8.71563L2.27813 0.475C2.05326 0.332498 1.79356 0.25451 1.52738 0.24955C1.26121 0.244591 0.998782 0.312849 0.768756 0.446875C0.53533 0.574944 0.340738 0.763562 0.205455 0.992884C0.0701717 1.2222 -0.000800114 1.48375 6.80471e-06 1.75V18.25C-0.000800114 18.5163 0.0701717 18.7778 0.205455 19.0071C0.340738 19.2364 0.53533 19.4251 0.768756 19.5531C0.998782 19.6872 1.26121 19.7554 1.52738 19.7505C1.79356 19.7455 2.05326 19.6675 2.27813 19.525L15.7781 11.2844C15.9994 11.1509 16.1824 10.9625 16.3095 10.7375C16.4365 10.5124 16.5033 10.2584 16.5033 10C16.5033 9.74158 16.4365 9.48755 16.3095 9.26253C16.1824 9.0375 15.9994 8.84911 15.7781 8.71563Z" fill="#1B1B1B" fill-opacity="0.96"/>
</svg>
